<svg id="visual" viewBox="0 0 900 450" width="900" height="450" xmlns="http://www.w3.org/2000/svg" xmlns:xlink="http://www.w3.org/1999/xlink" version="1.1"><rect x="0" y="0" width="900" height="450" fill="#000000"></rect><defs><linearGradient id="grad1_0" x1="50%" y1="100%" x2="100%" y2="0%"><stop offset="10%" stop-color="#fbae3c" stop-opacity="1"></stop><stop offset="90%" stop-color="#fbae3c" stop-opacity="1"></stop></linearGradient></defs><defs><linearGradient id="grad1_1" x1="50%" y1="100%" x2="100%" y2="0%"><stop offset="10%" stop-color="#fbae3c" stop-opacity="1"></stop><stop offset="90%" stop-color="#cc8606" stop-opacity="1"></stop></linearGradient></defs><defs><linearGradient id="grad1_2" x1="50%" y1="100%" x2="100%" y2="0%"><stop offset="10%" stop-color="#9d5f00" stop-opacity="1"></stop><stop offset="90%" stop-color="#cc8606" stop-opacity="1"></stop></linearGradient></defs><defs><linearGradient id="grad1_3" x1="50%" y1="100%" x2="100%" y2="0%"><stop offset="10%" stop-color="#9d5f00" stop-opacity="1"></stop><stop offset="90%" stop-color="#723b00" stop-opacity="1"></stop></linearGradient></defs><defs><linearGradient id="grad1_4" x1="50%" y1="100%" x2="100%" y2="0%"><stop offset="10%" stop-color="#4d1800" stop-opacity="1"></stop><stop offset="90%" stop-color="#723b00" stop-opacity="1"></stop></linearGradient></defs><defs><linearGradient id="grad1_5" x1="50%" y1="100%" x2="100%" y2="0%"><stop offset="10%" stop-color="#4d1800" stop-opacity="1"></stop><stop offset="90%" stop-color="#000000" stop-opacity="1"></stop></linearGradient></defs><defs><linearGradient id="grad2_0" x1="0%" y1="100%" x2="50%" y2="0%"><stop offset="10%" stop-color="#fbae3c" stop-opacity="1"></stop><stop offset="90%" stop-color="#fbae3c" stop-opacity="1"></stop></linearGradient></defs><defs><linearGradient id="grad2_1" x1="0%" y1="100%" x2="50%" y2="0%"><stop offset="10%" stop-color="#cc8606" stop-opacity="1"></stop><stop offset="90%" stop-color="#fbae3c" stop-opacity="1"></stop></linearGradient></defs><defs><linearGradient id="grad2_2" x1="0%" y1="100%" x2="50%" y2="0%"><stop offset="10%" stop-color="#cc8606" stop-opacity="1"></stop><stop offset="90%" stop-color="#9d5f00" stop-opacity="1"></stop></linearGradient></defs><defs><linearGradient id="grad2_3" x1="0%" y1="100%" x2="50%" y2="0%"><stop offset="10%" stop-color="#723b00" stop-opacity="1"></stop><stop offset="90%" stop-color="#9d5f00" stop-opacity="1"></stop></linearGradient></defs><defs><linearGradient id="grad2_4" x1="0%" y1="100%" x2="50%" y2="0%"><stop offset="10%" stop-color="#723b00" stop-opacity="1"></stop><stop offset="90%" stop-color="#4d1800" stop-opacity="1"></stop></linearGradient></defs><defs><linearGradient id="grad2_5" x1="0%" y1="100%" x2="50%" y2="0%"><stop offset="10%" stop-color="#000000" stop-opacity="1"></stop><stop offset="90%" stop-color="#4d1800" stop-opacity="1"></stop></linearGradient></defs><g transform="translate(900, 450)"><path d="M-157.5 0C-155.1 -11.4 -152.8 -22.8 -140.3 -27.9C-127.7 -33 -105 -31.8 -107.2 -44.4C-109.4 -57 -136.5 -83.4 -131 -87.5C-125.5 -91.6 -87.3 -73.6 -73.5 -73.5C-59.7 -73.5 -70.3 -91.6 -72.2 -108.1C-74.2 -124.6 -67.6 -139.6 -57.8 -139.5C-48 -139.4 -34.9 -124.1 -24.8 -124.6C-14.6 -125 -7.3 -141.3 0 -157.5L0 0Z" fill="#3e0500"></path><path d="M-131.2 0C-129.3 -9.5 -127.3 -19 -116.9 -23.2C-106.4 -27.5 -87.5 -26.5 -89.3 -37C-91.1 -47.5 -113.7 -69.5 -109.1 -72.9C-104.5 -76.4 -72.8 -61.3 -61.3 -61.3C-49.8 -61.3 -58.6 -76.3 -60.2 -90.1C-61.8 -103.9 -56.3 -116.4 -48.2 -116.3C-40 -116.1 -29.1 -103.4 -20.6 -103.8C-12.2 -104.2 -6.1 -117.7 0 -131.2L0 0Z" fill="#5e2900"></path><path d="M-105 0C-103.4 -7.6 -101.9 -15.2 -93.5 -18.6C-85.1 -22 -70 -21.2 -71.4 -29.6C-72.9 -38 -91 -55.6 -87.3 -58.3C-83.6 -61.1 -58.2 -49 -49 -49C-39.8 -49 -46.8 -61 -48.1 -72.1C-49.5 -83.1 -45.1 -93.1 -38.5 -93C-32 -92.9 -23.3 -82.7 -16.5 -83C-9.7 -83.4 -4.9 -94.2 0 -105L0 0Z" fill="#874d00"></path><path d="M-78.7 0C-77.6 -5.7 -76.4 -11.4 -70.1 -13.9C-63.9 -16.5 -52.5 -15.9 -53.6 -22.2C-54.7 -28.5 -68.2 -41.7 -65.5 -43.8C-62.7 -45.8 -43.7 -36.8 -36.8 -36.8C-29.9 -36.8 -35.1 -45.8 -36.1 -54C-37.1 -62.3 -33.8 -69.8 -28.9 -69.8C-24 -69.7 -17.5 -62 -12.4 -62.3C-7.3 -62.5 -3.7 -70.6 0 -78.7L0 0Z" fill="#b47200"></path><path d="M-52.5 0C-51.7 -3.8 -50.9 -7.6 -46.8 -9.3C-42.6 -11 -35 -10.6 -35.7 -14.8C-36.5 -19 -45.5 -27.8 -43.7 -29.2C-41.8 -30.5 -29.1 -24.5 -24.5 -24.5C-19.9 -24.5 -23.4 -30.5 -24.1 -36C-24.7 -41.5 -22.5 -46.5 -19.3 -46.5C-16 -46.5 -11.6 -41.4 -8.3 -41.5C-4.9 -41.7 -2.4 -47.1 0 -52.5L0 0Z" fill="#e39a25"></path><path d="M-26.2 0C-25.9 -1.9 -25.5 -3.8 -23.4 -4.6C-21.3 -5.5 -17.5 -5.3 -17.9 -7.4C-18.2 -9.5 -22.7 -13.9 -21.8 -14.6C-20.9 -15.3 -14.6 -12.3 -12.3 -12.3C-10 -12.3 -11.7 -15.3 -12 -18C-12.4 -20.8 -11.3 -23.3 -9.6 -23.3C-8 -23.2 -5.8 -20.7 -4.1 -20.8C-2.4 -20.8 -1.2 -23.5 0 -26.2L0 0Z" fill="#fbae3c"></path></g><g transform="translate(0, 0)"><path d="M157.5 0C150.3 8.7 143.1 17.4 143.2 28.5C143.3 39.6 150.7 53 145.5 60.3C140.3 67.5 122.6 68.6 116.4 77.8C110.2 87 115.6 104.3 108.2 108.2C100.7 112.1 80.4 102.7 68.3 102.3C56.2 101.9 52.3 110.5 45.5 109.9C38.8 109.4 29.1 99.5 21.1 105.9C13 112.3 6.5 134.9 0 157.5L0 0Z" fill="#3e0500"></path><path d="M131.3 0C125.2 7.3 119.2 14.5 119.3 23.7C119.4 33 125.6 44.2 121.3 50.2C116.9 56.3 102.2 57.2 97 64.8C91.9 72.5 96.4 86.9 90.2 90.2C84 93.4 67 85.6 56.9 85.2C46.9 84.9 43.6 92.1 37.9 91.6C32.3 91.1 24.3 82.9 17.6 88.3C10.8 93.6 5.4 112.4 0 131.3L0 0Z" fill="#5e2900"></path><path d="M105 0C100.2 5.8 95.4 11.6 95.5 19C95.5 26.4 100.5 35.3 97 40.2C93.6 45 81.7 45.7 77.6 51.9C73.5 58 77.1 69.5 72.1 72.1C67.2 74.7 53.6 68.4 45.6 68.2C37.5 67.9 34.9 73.7 30.4 73.3C25.8 72.9 19.4 66.4 14 70.6C8.7 74.9 4.3 89.9 0 105L0 0Z" fill="#874d00"></path><path d="M78.8 0C75.1 4.4 71.5 8.7 71.6 14.2C71.6 19.8 75.3 26.5 72.8 30.1C70.2 33.8 61.3 34.3 58.2 38.9C55.1 43.5 57.8 52.1 54.1 54.1C50.4 56.1 40.2 51.3 34.2 51.1C28.1 50.9 26.2 55.3 22.8 55C19.4 54.7 14.6 49.8 10.5 53C6.5 56.2 3.3 67.5 0 78.8L0 0Z" fill="#b47200"></path><path d="M52.5 0C50.1 2.9 47.7 5.8 47.7 9.5C47.8 13.2 50.2 17.7 48.5 20.1C46.8 22.5 40.9 22.9 38.8 25.9C36.7 29 38.5 34.8 36.1 36.1C33.6 37.4 26.8 34.2 22.8 34.1C18.7 34 17.4 36.8 15.2 36.6C12.9 36.5 9.7 33.2 7 35.3C4.3 37.4 2.2 45 0 52.5L0 0Z" fill="#e39a25"></path><path d="M26.3 0C25 1.5 23.8 2.9 23.9 4.7C23.9 6.6 25.1 8.8 24.3 10C23.4 11.3 20.4 11.4 19.4 13C18.4 14.5 19.3 17.4 18 18C16.8 18.7 13.4 17.1 11.4 17C9.4 17 8.7 18.4 7.6 18.3C6.5 18.2 4.9 16.6 3.5 17.7C2.2 18.7 1.1 22.5 0 26.3L0 0Z" fill="#fbae3c"></path></g></svg>