<svg id="visual" viewBox="0 0 900 450" width="900" height="450" xmlns="http://www.w3.org/2000/svg" xmlns:xlink="http://www.w3.org/1999/xlink" version="1.1"><rect x="0" y="0" width="900" height="450" fill="#001220"></rect><defs><linearGradient id="grad1_0" x1="50%" y1="0%" x2="100%" y2="100%"><stop offset="10%" stop-color="#fbae3c" stop-opacity="1"></stop><stop offset="90%" stop-color="#fbae3c" stop-opacity="1"></stop></linearGradient></defs><defs><linearGradient id="grad1_1" x1="50%" y1="0%" x2="100%" y2="100%"><stop offset="10%" stop-color="#fbae3c" stop-opacity="1"></stop><stop offset="90%" stop-color="#cc5867" stop-opacity="1"></stop></linearGradient></defs><defs><linearGradient id="grad1_2" x1="50%" y1="0%" x2="100%" y2="100%"><stop offset="10%" stop-color="#593762" stop-opacity="1"></stop><stop offset="90%" stop-color="#cc5867" stop-opacity="1"></stop></linearGradient></defs><defs><linearGradient id="grad1_3" x1="50%" y1="0%" x2="100%" y2="100%"><stop offset="10%" stop-color="#593762" stop-opacity="1"></stop><stop offset="90%" stop-color="#001220" stop-opacity="1"></stop></linearGradient></defs><defs><linearGradient id="grad2_0" x1="0%" y1="0%" x2="50%" y2="100%"><stop offset="10%" stop-color="#fbae3c" stop-opacity="1"></stop><stop offset="90%" stop-color="#fbae3c" stop-opacity="1"></stop></linearGradient></defs><defs><linearGradient id="grad2_1" x1="0%" y1="0%" x2="50%" y2="100%"><stop offset="10%" stop-color="#cc5867" stop-opacity="1"></stop><stop offset="90%" stop-color="#fbae3c" stop-opacity="1"></stop></linearGradient></defs><defs><linearGradient id="grad2_2" x1="0%" y1="0%" x2="50%" y2="100%"><stop offset="10%" stop-color="#cc5867" stop-opacity="1"></stop><stop offset="90%" stop-color="#593762" stop-opacity="1"></stop></linearGradient></defs><defs><linearGradient id="grad2_3" x1="0%" y1="0%" x2="50%" y2="100%"><stop offset="10%" stop-color="#001220" stop-opacity="1"></stop><stop offset="90%" stop-color="#593762" stop-opacity="1"></stop></linearGradient></defs><g transform="translate(900, 0)"><path d="M0 157.5C-7 136.8 -14.1 116.1 -22 110.8C-30 105.6 -38.9 115.7 -49.7 120.1C-60.6 124.5 -73.3 123 -75 112.2C-76.7 101.5 -67.4 81.4 -78.5 78.5C-89.5 75.6 -120.9 90 -131 87.5C-141 85 -129.7 65.6 -129.3 53.6C-129 41.5 -139.6 36.8 -146.1 29.1C-152.7 21.4 -155.1 10.7 -157.5 0L0 0Z" fill="#232745"></path><path d="M0 118.1C-5.3 102.6 -10.6 87.1 -16.5 83.1C-22.5 79.2 -29.2 86.8 -37.3 90.1C-45.4 93.4 -55 92.3 -56.3 84.2C-57.5 76.1 -50.6 61 -58.9 58.9C-67.2 56.7 -90.7 67.5 -98.2 65.6C-105.7 63.8 -97.3 49.2 -97 40.2C-96.7 31.1 -104.7 27.6 -109.6 21.8C-114.5 16 -116.3 8 -118.1 0L0 0Z" fill="#96446e"></path><path d="M0 78.8C-3.5 68.4 -7 58 -11 55.4C-15 52.8 -19.5 57.9 -24.9 60.1C-30.3 62.2 -36.6 61.5 -37.5 56.1C-38.4 50.7 -33.7 40.7 -39.2 39.2C-44.8 37.8 -60.5 45 -65.5 43.8C-70.5 42.5 -64.8 32.8 -64.7 26.8C-64.5 20.8 -69.8 18.4 -73.1 14.5C-76.3 10.7 -77.5 5.3 -78.7 0L0 0Z" fill="#f17c53"></path><path d="M0 39.4C-1.8 34.2 -3.5 29 -5.5 27.7C-7.5 26.4 -9.7 28.9 -12.4 30C-15.1 31.1 -18.3 30.8 -18.8 28.1C-19.2 25.4 -16.9 20.3 -19.6 19.6C-22.4 18.9 -30.2 22.5 -32.7 21.9C-35.2 21.3 -32.4 16.4 -32.3 13.4C-32.2 10.4 -34.9 9.2 -36.5 7.3C-38.2 5.3 -38.8 2.7 -39.4 0L0 0Z" fill="#fbae3c"></path></g><g transform="translate(0, 450)"><path d="M0 -157.5C12.4 -162.4 24.9 -167.3 30.7 -154.5C36.6 -141.6 35.8 -111 42.1 -101.6C48.4 -92.3 61.8 -104.3 68.3 -102.3C74.9 -100.3 74.5 -84.2 73.5 -73.5C72.6 -62.9 71.1 -57.5 85.6 -57.2C100.2 -56.9 130.8 -61.6 134.9 -55.9C138.9 -50.2 116.4 -34.1 115.7 -23C115.1 -12 136.3 -6 157.5 0L0 0Z" fill="#232745"></path><path d="M0 -118.1C9.3 -121.8 18.7 -125.5 23 -115.9C27.4 -106.2 26.8 -83.2 31.6 -76.2C36.3 -69.2 46.4 -78.2 51.3 -76.7C56.1 -75.2 55.9 -63.2 55.2 -55.2C54.4 -47.1 53.3 -43.2 64.2 -42.9C75.2 -42.7 98.1 -46.2 101.2 -41.9C104.2 -37.6 87.3 -25.5 86.8 -17.3C86.3 -9 102.2 -4.5 118.1 0L0 0Z" fill="#96446e"></path><path d="M0 -78.7C6.2 -81.2 12.4 -83.7 15.4 -77.2C18.3 -70.8 17.9 -55.5 21 -50.8C24.2 -46.1 30.9 -52.1 34.2 -51.1C37.4 -50.1 37.2 -42.1 36.8 -36.8C36.3 -31.4 35.5 -28.8 42.8 -28.6C50.1 -28.5 65.4 -30.8 67.4 -27.9C69.5 -25.1 58.2 -17 57.9 -11.5C57.5 -6 68.1 -3 78.8 0L0 0Z" fill="#f17c53"></path><path d="M0 -39.4C3.1 -40.6 6.2 -41.8 7.7 -38.6C9.1 -35.4 8.9 -27.7 10.5 -25.4C12.1 -23.1 15.5 -26.1 17.1 -25.6C18.7 -25.1 18.6 -21.1 18.4 -18.4C18.1 -15.7 17.8 -14.4 21.4 -14.3C25.1 -14.2 32.7 -15.4 33.7 -14C34.7 -12.5 29.1 -8.5 28.9 -5.8C28.8 -3 34.1 -1.5 39.4 0L0 0Z" fill="#fbae3c"></path></g></svg>