<svg id="visual" viewBox="0 0 900 600" width="900" height="600" xmlns="http://www.w3.org/2000/svg" xmlns:xlink="http://www.w3.org/1999/xlink" version="1.1"><rect x="0" y="0" width="900" height="600" fill="#001220"></rect><path d="M0 183L21.5 184.2C43 185.3 86 187.7 128.8 198.3C171.7 209 214.3 228 257.2 226.2C300 224.3 343 201.7 385.8 193.2C428.7 184.7 471.3 190.3 514.2 196.5C557 202.7 600 209.3 642.8 209.3C685.7 209.3 728.3 202.7 771.2 206.2C814 209.7 857 223.3 878.5 230.2L900 237L900 0L878.5 0C857 0 814 0 771.2 0C728.3 0 685.7 0 642.8 0C600 0 557 0 514.2 0C471.3 0 428.7 0 385.8 0C343 0 300 0 257.2 0C214.3 0 171.7 0 128.8 0C86 0 43 0 21.5 0L0 0Z" fill="#fa7268"></path><path d="M0 188L21.5 181.3C43 174.7 86 161.3 128.8 156.2C171.7 151 214.3 154 257.2 159.8C300 165.7 343 174.3 385.8 170.8C428.7 167.3 471.3 151.7 514.2 153.8C557 156 600 176 642.8 182.5C685.7 189 728.3 182 771.2 177C814 172 857 169 878.5 167.5L900 166L900 0L878.5 0C857 0 814 0 771.2 0C728.3 0 685.7 0 642.8 0C600 0 557 0 514.2 0C471.3 0 428.7 0 385.8 0C343 0 300 0 257.2 0C214.3 0 171.7 0 128.8 0C86 0 43 0 21.5 0L0 0Z" fill="#ef5f67"></path><path d="M0 150L21.5 144.5C43 139 86 128 128.8 123.2C171.7 118.3 214.3 119.7 257.2 123.7C300 127.7 343 134.3 385.8 140.2C428.7 146 471.3 151 514.2 142.2C557 133.3 600 110.7 642.8 99.2C685.7 87.7 728.3 87.3 771.2 90.7C814 94 857 101 878.5 104.5L900 108L900 0L878.5 0C857 0 814 0 771.2 0C728.3 0 685.7 0 642.8 0C600 0 557 0 514.2 0C471.3 0 428.7 0 385.8 0C343 0 300 0 257.2 0C214.3 0 171.7 0 128.8 0C86 0 43 0 21.5 0L0 0Z" fill="#e34c67"></path><path d="M0 116L21.5 111C43 106 86 96 128.8 89.2C171.7 82.3 214.3 78.7 257.2 82.7C300 86.7 343 98.3 385.8 97.2C428.7 96 471.3 82 514.2 81C557 80 600 92 642.8 97.3C685.7 102.7 728.3 101.3 771.2 102.5C814 103.7 857 107.3 878.5 109.2L900 111L900 0L878.5 0C857 0 814 0 771.2 0C728.3 0 685.7 0 642.8 0C600 0 557 0 514.2 0C471.3 0 428.7 0 385.8 0C343 0 300 0 257.2 0C214.3 0 171.7 0 128.8 0C86 0 43 0 21.5 0L0 0Z" fill="#d53867"></path><path d="M0 71L21.5 68.3C43 65.7 86 60.3 128.8 52.8C171.7 45.3 214.3 35.7 257.2 30.7C300 25.7 343 25.3 385.8 27.2C428.7 29 471.3 33 514.2 35.3C557 37.7 600 38.3 642.8 41C685.7 43.7 728.3 48.3 771.2 52C814 55.7 857 58.3 878.5 59.7L900 61L900 0L878.5 0C857 0 814 0 771.2 0C728.3 0 685.7 0 642.8 0C600 0 557 0 514.2 0C471.3 0 428.7 0 385.8 0C343 0 300 0 257.2 0C214.3 0 171.7 0 128.8 0C86 0 43 0 21.5 0L0 0Z" fill="#c62368"></path></svg>