<svg id="visual" viewBox="0 0 1920 1620" width="1920" height="1620" xmlns="http://www.w3.org/2000/svg" xmlns:xlink="http://www.w3.org/1999/xlink" version="1.1"><path d="M0 131L24.7 114.7C49.3 98.3 98.7 65.7 147.8 62.8C197 60 246 87 295.2 108.7C344.3 130.3 393.7 146.7 443 133.2C492.3 119.7 541.7 76.3 590.8 81.7C640 87 689 141 738.2 143.8C787.3 146.7 836.7 98.3 886 93C935.3 87.7 984.7 125.3 1034 122.5C1083.3 119.7 1132.7 76.3 1181.8 76.3C1231 76.3 1280 119.7 1329.2 146.7C1378.3 173.7 1427.7 184.3 1477 176.2C1526.3 168 1575.7 141 1624.8 127.5C1674 114 1723 114 1772.2 114C1821.3 114 1870.7 114 1895.3 114L1920 114L1920 0L1895.3 0C1870.7 0 1821.3 0 1772.2 0C1723 0 1674 0 1624.8 0C1575.7 0 1526.3 0 1477 0C1427.7 0 1378.3 0 1329.2 0C1280 0 1231 0 1181.8 0C1132.7 0 1083.3 0 1034 0C984.7 0 935.3 0 886 0C836.7 0 787.3 0 738.2 0C689 0 640 0 590.8 0C541.7 0 492.3 0 443 0C393.7 0 344.3 0 295.2 0C246 0 197 0 147.8 0C98.7 0 49.3 0 24.7 0L0 0Z" fill="#727881"></path><path d="M0 228L24.7 246.8C49.3 265.7 98.7 303.3 147.8 308.7C197 314 246 287 295.2 308.7C344.3 330.3 393.7 400.7 443 403.3C492.3 406 541.7 341 590.8 327.5C640 314 689 352 738.2 330.5C787.3 309 836.7 228 886 214.5C935.3 201 984.7 255 1034 255C1083.3 255 1132.7 201 1181.8 217.2C1231 233.3 1280 319.7 1329.2 373.7C1378.3 427.7 1427.7 449.3 1477 417C1526.3 384.7 1575.7 298.3 1624.8 295.7C1674 293 1723 374 1772.2 379.3C1821.3 384.7 1870.7 314.3 1895.3 279.2L1920 244L1920 112L1895.3 112C1870.7 112 1821.3 112 1772.2 112C1723 112 1674 112 1624.8 125.5C1575.7 139 1526.3 166 1477 174.2C1427.7 182.3 1378.3 171.7 1329.2 144.7C1280 117.7 1231 74.3 1181.8 74.3C1132.7 74.3 1083.3 117.7 1034 120.5C984.7 123.3 935.3 85.7 886 91C836.7 96.3 787.3 144.7 738.2 141.8C689 139 640 85 590.8 79.7C541.7 74.3 492.3 117.7 443 131.2C393.7 144.7 344.3 128.3 295.2 106.7C246 85 197 58 147.8 60.8C98.7 63.7 49.3 96.3 24.7 112.7L0 129Z" fill="#656c75"></path><path d="M0 568L24.7 589.7C49.3 611.3 98.7 654.7 147.8 633C197 611.3 246 524.7 295.2 535.3C344.3 546 393.7 654 443 648.7C492.3 643.3 541.7 524.7 590.8 519.3C640 514 689 622 738.2 662.5C787.3 703 836.7 676 886 640.8C935.3 605.7 984.7 562.3 1034 519.2C1083.3 476 1132.7 433 1181.8 446.5C1231 460 1280 530 1329.2 557C1378.3 584 1427.7 568 1477 565.3C1526.3 562.7 1575.7 573.3 1624.8 594.8C1674 616.3 1723 648.7 1772.2 629.8C1821.3 611 1870.7 541 1895.3 506L1920 471L1920 242L1895.3 277.2C1870.7 312.3 1821.3 382.7 1772.2 377.3C1723 372 1674 291 1624.8 293.7C1575.7 296.3 1526.3 382.7 1477 415C1427.7 447.3 1378.3 425.7 1329.2 371.7C1280 317.7 1231 231.3 1181.8 215.2C1132.7 199 1083.3 253 1034 253C984.7 253 935.3 199 886 212.5C836.7 226 787.3 307 738.2 328.5C689 350 640 312 590.8 325.5C541.7 339 492.3 404 443 401.3C393.7 398.7 344.3 328.3 295.2 306.7C246 285 197 312 147.8 306.7C98.7 301.3 49.3 263.7 24.7 244.8L0 226Z" fill="#596069"></path><path d="M0 1022L24.7 995C49.3 968 98.7 914 147.8 941C197 968 246 1076 295.2 1127.2C344.3 1178.3 393.7 1172.7 443 1118.7C492.3 1064.7 541.7 962.3 590.8 948.8C640 935.3 689 1010.7 738.2 1070C787.3 1129.3 836.7 1172.7 886 1167.3C935.3 1162 984.7 1108 1034 1089.2C1083.3 1070.3 1132.7 1086.7 1181.8 1097.5C1231 1108.3 1280 1113.7 1329.2 1046.2C1378.3 978.7 1427.7 838.3 1477 768.2C1526.3 698 1575.7 698 1624.8 792.5C1674 887 1723 1076 1772.2 1067.8C1821.3 1059.7 1870.7 854.3 1895.3 751.7L1920 649L1920 469L1895.3 504C1870.7 539 1821.3 609 1772.2 627.8C1723 646.7 1674 614.3 1624.8 592.8C1575.7 571.3 1526.3 560.7 1477 563.3C1427.7 566 1378.3 582 1329.2 555C1280 528 1231 458 1181.8 444.5C1132.7 431 1083.3 474 1034 517.2C984.7 560.3 935.3 603.7 886 638.8C836.7 674 787.3 701 738.2 660.5C689 620 640 512 590.8 517.3C541.7 522.7 492.3 641.3 443 646.7C393.7 652 344.3 544 295.2 533.3C246 522.7 197 609.3 147.8 631C98.7 652.7 49.3 609.3 24.7 587.7L0 566Z" fill="#4d545d"></path><path d="M0 1070L24.7 1048.5C49.3 1027 98.7 984 147.8 1016.5C197 1049 246 1157 295.2 1229.8C344.3 1302.7 393.7 1340.3 443 1291.7C492.3 1243 541.7 1108 590.8 1091.8C640 1075.7 689 1178.3 738.2 1235C787.3 1291.7 836.7 1302.3 886 1278C935.3 1253.7 984.7 1194.3 1034 1164.7C1083.3 1135 1132.7 1135 1181.8 1159.3C1231 1183.7 1280 1232.3 1329.2 1178.3C1378.3 1124.3 1427.7 967.7 1477 886.7C1526.3 805.7 1575.7 800.3 1624.8 886.7C1674 973 1723 1151 1772.2 1145.5C1821.3 1140 1870.7 951 1895.3 856.5L1920 762L1920 647L1895.3 749.7C1870.7 852.3 1821.3 1057.7 1772.2 1065.8C1723 1074 1674 885 1624.8 790.5C1575.7 696 1526.3 696 1477 766.2C1427.7 836.3 1378.3 976.7 1329.2 1044.2C1280 1111.7 1231 1106.3 1181.8 1095.5C1132.7 1084.7 1083.3 1068.3 1034 1087.2C984.7 1106 935.3 1160 886 1165.3C836.7 1170.7 787.3 1127.3 738.2 1068C689 1008.7 640 933.3 590.8 946.8C541.7 960.3 492.3 1062.7 443 1116.7C393.7 1170.7 344.3 1176.3 295.2 1125.2C246 1074 197 966 147.8 939C98.7 912 49.3 966 24.7 993L0 1020Z" fill="#464d55"></path><path d="M0 1313L24.7 1272.5C49.3 1232 98.7 1151 147.8 1156.5C197 1162 246 1254 295.2 1316.2C344.3 1378.3 393.7 1410.7 443 1367.3C492.3 1324 541.7 1205 590.8 1188.8C640 1172.7 689 1259.3 738.2 1316.2C787.3 1373 836.7 1400 886 1375.7C935.3 1351.3 984.7 1275.7 1034 1267.5C1083.3 1259.3 1132.7 1318.7 1181.8 1367.2C1231 1415.7 1280 1453.3 1329.2 1380.5C1378.3 1307.7 1427.7 1124.3 1477 1054.2C1526.3 984 1575.7 1027 1624.8 1105.2C1674 1183.3 1723 1296.7 1772.2 1277.8C1821.3 1259 1870.7 1108 1895.3 1032.5L1920 957L1920 760L1895.3 854.5C1870.7 949 1821.3 1138 1772.2 1143.5C1723 1149 1674 971 1624.8 884.7C1575.7 798.3 1526.3 803.7 1477 884.7C1427.7 965.7 1378.3 1122.3 1329.2 1176.3C1280 1230.3 1231 1181.7 1181.8 1157.3C1132.7 1133 1083.3 1133 1034 1162.7C984.7 1192.3 935.3 1251.7 886 1276C836.7 1300.3 787.3 1289.7 738.2 1233C689 1176.3 640 1073.7 590.8 1089.8C541.7 1106 492.3 1241 443 1289.7C393.7 1338.3 344.3 1300.7 295.2 1227.8C246 1155 197 1047 147.8 1014.5C98.7 982 49.3 1025 24.7 1046.5L0 1068Z" fill="#3f454c"></path><path d="M0 1621L24.7 1621C49.3 1621 98.7 1621 147.8 1621C197 1621 246 1621 295.2 1621C344.3 1621 393.7 1621 443 1621C492.3 1621 541.7 1621 590.8 1621C640 1621 689 1621 738.2 1621C787.3 1621 836.7 1621 886 1621C935.3 1621 984.7 1621 1034 1621C1083.3 1621 1132.7 1621 1181.8 1621C1231 1621 1280 1621 1329.2 1621C1378.3 1621 1427.7 1621 1477 1621C1526.3 1621 1575.7 1621 1624.8 1621C1674 1621 1723 1621 1772.2 1621C1821.3 1621 1870.7 1621 1895.3 1621L1920 1621L1920 955L1895.3 1030.5C1870.7 1106 1821.3 1257 1772.2 1275.8C1723 1294.7 1674 1181.3 1624.8 1103.2C1575.7 1025 1526.3 982 1477 1052.2C1427.7 1122.3 1378.3 1305.7 1329.2 1378.5C1280 1451.3 1231 1413.7 1181.8 1365.2C1132.7 1316.7 1083.3 1257.3 1034 1265.5C984.7 1273.7 935.3 1349.3 886 1373.7C836.7 1398 787.3 1371 738.2 1314.2C689 1257.3 640 1170.7 590.8 1186.8C541.7 1203 492.3 1322 443 1365.3C393.7 1408.7 344.3 1376.3 295.2 1314.2C246 1252 197 1160 147.8 1154.5C98.7 1149 49.3 1230 24.7 1270.5L0 1311Z" fill="#383e44"></path></svg>