<svg id="visual" viewBox="0 0 900 90" width="900" height="90" xmlns="http://www.w3.org/2000/svg" xmlns:xlink="http://www.w3.org/1999/xlink" version="1.1"><path d="M0 6L8.3 6C16.7 6 33.3 6 50 5.7C66.7 5.3 83.3 4.7 100 4.7C116.7 4.7 133.3 5.3 150 5.7C166.7 6 183.3 6 200 6C216.7 6 233.3 6 250 6C266.7 6 283.3 6 300 6C316.7 6 333.3 6 350 5.8C366.7 5.7 383.3 5.3 400 5C416.7 4.7 433.3 4.3 450 4.2C466.7 4 483.3 4 500 4.3C516.7 4.7 533.3 5.3 550 5.7C566.7 6 583.3 6 600 6C616.7 6 633.3 6 650 5.8C666.7 5.7 683.3 5.3 700 5.3C716.7 5.3 733.3 5.7 750 5.5C766.7 5.3 783.3 4.7 800 4.7C816.7 4.7 833.3 5.3 850 5.7C866.7 6 883.3 6 891.7 6L900 6L900 0L891.7 0C883.3 0 866.7 0 850 0C833.3 0 816.7 0 800 0C783.3 0 766.7 0 750 0C733.3 0 716.7 0 700 0C683.3 0 666.7 0 650 0C633.3 0 616.7 0 600 0C583.3 0 566.7 0 550 0C533.3 0 516.7 0 500 0C483.3 0 466.7 0 450 0C433.3 0 416.7 0 400 0C383.3 0 366.7 0 350 0C333.3 0 316.7 0 300 0C283.3 0 266.7 0 250 0C233.3 0 216.7 0 200 0C183.3 0 166.7 0 150 0C133.3 0 116.7 0 100 0C83.3 0 66.7 0 50 0C33.3 0 16.7 0 8.3 0L0 0Z" fill="#1e293b"></path><path d="M0 19L8.3 20.7C16.7 22.3 33.3 25.7 50 26.8C66.7 28 83.3 27 100 25.7C116.7 24.3 133.3 22.7 150 21.3C166.7 20 183.3 19 200 19.5C216.7 20 233.3 22 250 22.2C266.7 22.3 283.3 20.7 300 21.7C316.7 22.7 333.3 26.3 350 26.3C366.7 26.3 383.3 22.7 400 22C416.7 21.3 433.3 23.7 450 23.7C466.7 23.7 483.3 21.3 500 22.2C516.7 23 533.3 27 550 29.2C566.7 31.3 583.3 31.7 600 31.7C616.7 31.7 633.3 31.3 650 29.5C666.7 27.7 683.3 24.3 700 23.5C716.7 22.7 733.3 24.3 750 24.3C766.7 24.3 783.3 22.7 800 23C816.7 23.3 833.3 25.7 850 25.3C866.7 25 883.3 22 891.7 20.5L900 19L900 4L891.7 4C883.3 4 866.7 4 850 3.7C833.3 3.3 816.7 2.7 800 2.7C783.3 2.7 766.7 3.3 750 3.5C733.3 3.7 716.7 3.3 700 3.3C683.3 3.3 666.7 3.7 650 3.8C633.3 4 616.7 4 600 4C583.3 4 566.7 4 550 3.7C533.3 3.3 516.7 2.7 500 2.3C483.3 2 466.7 2 450 2.2C433.3 2.3 416.7 2.7 400 3C383.3 3.3 366.7 3.7 350 3.8C333.3 4 316.7 4 300 4C283.3 4 266.7 4 250 4C233.3 4 216.7 4 200 4C183.3 4 166.7 4 150 3.7C133.3 3.3 116.7 2.7 100 2.7C83.3 2.7 66.7 3.3 50 3.7C33.3 4 16.7 4 8.3 4L0 4Z" fill="#202d42"></path><path d="M0 29L8.3 30.7C16.7 32.3 33.3 35.7 50 36.8C66.7 38 83.3 37 100 35.8C116.7 34.7 133.3 33.3 150 32C166.7 30.7 183.3 29.3 200 29.8C216.7 30.3 233.3 32.7 250 33C266.7 33.3 283.3 31.7 300 31.8C316.7 32 333.3 34 350 33.3C366.7 32.7 383.3 29.3 400 28.7C416.7 28 433.3 30 450 29.8C466.7 29.7 483.3 27.3 500 28C516.7 28.7 533.3 32.3 550 34.7C566.7 37 583.3 38 600 38.5C616.7 39 633.3 39 650 37.3C666.7 35.7 683.3 32.3 700 31.2C716.7 30 733.3 31 750 30.7C766.7 30.3 783.3 28.7 800 29.2C816.7 29.7 833.3 32.3 850 32.2C866.7 32 883.3 29 891.7 27.5L900 26L900 17L891.7 18.5C883.3 20 866.7 23 850 23.3C833.3 23.7 816.7 21.3 800 21C783.3 20.7 766.7 22.3 750 22.3C733.3 22.3 716.7 20.7 700 21.5C683.3 22.3 666.7 25.7 650 27.5C633.3 29.3 616.7 29.7 600 29.7C583.3 29.7 566.7 29.3 550 27.2C533.3 25 516.7 21 500 20.2C483.3 19.3 466.7 21.7 450 21.7C433.3 21.7 416.7 19.3 400 20C383.3 20.7 366.7 24.3 350 24.3C333.3 24.3 316.7 20.7 300 19.7C283.3 18.7 266.7 20.3 250 20.2C233.3 20 216.7 18 200 17.5C183.3 17 166.7 18 150 19.3C133.3 20.7 116.7 22.3 100 23.7C83.3 25 66.7 26 50 24.8C33.3 23.7 16.7 20.3 8.3 18.7L0 17Z" fill="#21314a"></path><path d="M0 32L8.3 34.3C16.7 36.7 33.3 41.3 50 42.8C66.7 44.3 83.3 42.7 100 41.2C116.7 39.7 133.3 38.3 150 37.3C166.7 36.3 183.3 35.7 200 36.5C216.7 37.3 233.3 39.7 250 39.5C266.7 39.3 283.3 36.7 300 36.7C316.7 36.7 333.3 39.3 350 39.5C366.7 39.7 383.3 37.3 400 36.8C416.7 36.3 433.3 37.7 450 37C466.7 36.3 483.3 33.7 500 34.2C516.7 34.7 533.3 38.3 550 41C566.7 43.7 583.3 45.3 600 46C616.7 46.7 633.3 46.3 650 43.8C666.7 41.3 683.3 36.7 700 35.3C716.7 34 733.3 36 750 35.8C766.7 35.7 783.3 33.3 800 34.3C816.7 35.3 833.3 39.7 850 39.8C866.7 40 883.3 36 891.7 34L900 32L900 24L891.7 25.5C883.3 27 866.7 30 850 30.2C833.3 30.3 816.7 27.7 800 27.2C783.3 26.7 766.7 28.3 750 28.7C733.3 29 716.7 28 700 29.2C683.3 30.3 666.7 33.7 650 35.3C633.3 37 616.7 37 600 36.5C583.3 36 566.7 35 550 32.7C533.3 30.3 516.7 26.7 500 26C483.3 25.3 466.7 27.7 450 27.8C433.3 28 416.7 26 400 26.7C383.3 27.3 366.7 30.7 350 31.3C333.3 32 316.7 30 300 29.8C283.3 29.7 266.7 31.3 250 31C233.3 30.7 216.7 28.3 200 27.8C183.3 27.3 166.7 28.7 150 30C133.3 31.3 116.7 32.7 100 33.8C83.3 35 66.7 36 50 34.8C33.3 33.7 16.7 30.3 8.3 28.7L0 27Z" fill="#233551"></path><path d="M0 39L8.3 41.2C16.7 43.3 33.3 47.7 50 48.3C66.7 49 83.3 46 100 44C116.7 42 133.3 41 150 40.7C166.7 40.3 183.3 40.7 200 41.7C216.7 42.7 233.3 44.3 250 44.5C266.7 44.7 283.3 43.3 300 43.5C316.7 43.7 333.3 45.3 350 45C366.7 44.7 383.3 42.3 400 41.7C416.7 41 433.3 42 450 41.2C466.7 40.3 483.3 37.7 500 38.2C516.7 38.7 533.3 42.3 550 45C566.7 47.7 583.3 49.3 600 50.2C616.7 51 633.3 51 650 48.5C666.7 46 683.3 41 700 39.5C716.7 38 733.3 40 750 39.7C766.7 39.3 783.3 36.7 800 37.8C816.7 39 833.3 44 850 44.5C866.7 45 883.3 41 891.7 39L900 37L900 30L891.7 32C883.3 34 866.7 38 850 37.8C833.3 37.7 816.7 33.3 800 32.3C783.3 31.3 766.7 33.7 750 33.8C733.3 34 716.7 32 700 33.3C683.3 34.7 666.7 39.3 650 41.8C633.3 44.3 616.7 44.7 600 44C583.3 43.3 566.7 41.7 550 39C533.3 36.3 516.7 32.7 500 32.2C483.3 31.7 466.7 34.3 450 35C433.3 35.7 416.7 34.3 400 34.8C383.3 35.3 366.7 37.7 350 37.5C333.3 37.3 316.7 34.7 300 34.7C283.3 34.7 266.7 37.3 250 37.5C233.3 37.7 216.7 35.3 200 34.5C183.3 33.7 166.7 34.3 150 35.3C133.3 36.3 116.7 37.7 100 39.2C83.3 40.7 66.7 42.3 50 40.8C33.3 39.3 16.7 34.7 8.3 32.3L0 30Z" fill="#253959"></path><path d="M0 62L8.3 63C16.7 64 33.3 66 50 66C66.7 66 83.3 64 100 63.8C116.7 63.7 133.3 65.3 150 65.7C166.7 66 183.3 65 200 64.2C216.7 63.3 233.3 62.7 250 62.5C266.7 62.3 283.3 62.7 300 62C316.7 61.3 333.3 59.7 350 59.5C366.7 59.3 383.3 60.7 400 60.7C416.7 60.7 433.3 59.3 450 59.2C466.7 59 483.3 60 500 61.2C516.7 62.3 533.3 63.7 550 64C566.7 64.3 583.3 63.7 600 64C616.7 64.3 633.3 65.7 650 64.8C666.7 64 683.3 61 700 59.7C716.7 58.3 733.3 58.7 750 60C766.7 61.3 783.3 63.7 800 64.7C816.7 65.7 833.3 65.3 850 64.8C866.7 64.3 883.3 63.7 891.7 63.3L900 63L900 35L891.7 37C883.3 39 866.7 43 850 42.5C833.3 42 816.7 37 800 35.8C783.3 34.7 766.7 37.3 750 37.7C733.3 38 716.7 36 700 37.5C683.3 39 666.7 44 650 46.5C633.3 49 616.7 49 600 48.2C583.3 47.3 566.7 45.7 550 43C533.3 40.3 516.7 36.7 500 36.2C483.3 35.7 466.7 38.3 450 39.2C433.3 40 416.7 39 400 39.7C383.3 40.3 366.7 42.7 350 43C333.3 43.3 316.7 41.7 300 41.5C283.3 41.3 266.7 42.7 250 42.5C233.3 42.3 216.7 40.7 200 39.7C183.3 38.7 166.7 38.3 150 38.7C133.3 39 116.7 40 100 42C83.3 44 66.7 47 50 46.3C33.3 45.7 16.7 41.3 8.3 39.2L0 37Z" fill="#273d61"></path><path d="M0 69L8.3 69.5C16.7 70 33.3 71 50 70.5C66.7 70 83.3 68 100 67.8C116.7 67.7 133.3 69.3 150 69.7C166.7 70 183.3 69 200 68.3C216.7 67.7 233.3 67.3 250 67.5C266.7 67.7 283.3 68.3 300 67.3C316.7 66.3 333.3 63.7 350 63.5C366.7 63.3 383.3 65.7 400 66.2C416.7 66.7 433.3 65.3 450 64.8C466.7 64.3 483.3 64.7 500 66C516.7 67.3 533.3 69.7 550 70C566.7 70.3 583.3 68.7 600 68.3C616.7 68 633.3 69 650 68C666.7 67 683.3 64 700 63.5C716.7 63 733.3 65 750 66.8C766.7 68.7 783.3 70.3 800 71C816.7 71.7 833.3 71.3 850 70.8C866.7 70.3 883.3 69.7 891.7 69.3L900 69L900 61L891.7 61.3C883.3 61.7 866.7 62.3 850 62.8C833.3 63.3 816.7 63.7 800 62.7C783.3 61.7 766.7 59.3 750 58C733.3 56.7 716.7 56.3 700 57.7C683.3 59 666.7 62 650 62.8C633.3 63.7 616.7 62.3 600 62C583.3 61.7 566.7 62.3 550 62C533.3 61.7 516.7 60.3 500 59.2C483.3 58 466.7 57 450 57.2C433.3 57.3 416.7 58.7 400 58.7C383.3 58.7 366.7 57.3 350 57.5C333.3 57.7 316.7 59.3 300 60C283.3 60.7 266.7 60.3 250 60.5C233.3 60.7 216.7 61.3 200 62.2C183.3 63 166.7 64 150 63.7C133.3 63.3 116.7 61.7 100 61.8C83.3 62 66.7 64 50 64C33.3 64 16.7 62 8.3 61L0 60Z" fill="#294168"></path><path d="M0 76L8.3 76.8C16.7 77.7 33.3 79.3 50 79.2C66.7 79 83.3 77 100 76.7C116.7 76.3 133.3 77.7 150 78.5C166.7 79.3 183.3 79.7 200 79.8C216.7 80 233.3 80 250 79.7C266.7 79.3 283.3 78.7 300 78.3C316.7 78 333.3 78 350 78.2C366.7 78.3 383.3 78.7 400 78.7C416.7 78.7 433.3 78.3 450 78.2C466.7 78 483.3 78 500 78.5C516.7 79 533.3 80 550 80.8C566.7 81.7 583.3 82.3 600 82.3C616.7 82.3 633.3 81.7 650 80.7C666.7 79.7 683.3 78.3 700 78C716.7 77.7 733.3 78.3 750 79C766.7 79.7 783.3 80.3 800 81C816.7 81.7 833.3 82.3 850 81.8C866.7 81.3 883.3 79.7 891.7 78.8L900 78L900 67L891.7 67.3C883.3 67.7 866.7 68.3 850 68.8C833.3 69.3 816.7 69.7 800 69C783.3 68.3 766.7 66.7 750 64.8C733.3 63 716.7 61 700 61.5C683.3 62 666.7 65 650 66C633.3 67 616.7 66 600 66.3C583.3 66.7 566.7 68.3 550 68C533.3 67.7 516.7 65.3 500 64C483.3 62.7 466.7 62.3 450 62.8C433.3 63.3 416.7 64.7 400 64.2C383.3 63.7 366.7 61.3 350 61.5C333.3 61.7 316.7 64.3 300 65.3C283.3 66.3 266.7 65.7 250 65.5C233.3 65.3 216.7 65.7 200 66.3C183.3 67 166.7 68 150 67.7C133.3 67.3 116.7 65.7 100 65.8C83.3 66 66.7 68 50 68.5C33.3 69 16.7 68 8.3 67.5L0 67Z" fill="#2b4570"></path><path d="M0 81L8.3 82C16.7 83 33.3 85 50 84.7C66.7 84.3 83.3 81.7 100 81.5C116.7 81.3 133.3 83.7 150 85C166.7 86.3 183.3 86.7 200 86.2C216.7 85.7 233.3 84.3 250 83.3C266.7 82.3 283.3 81.7 300 81.8C316.7 82 333.3 83 350 83.3C366.7 83.7 383.3 83.3 400 83.2C416.7 83 433.3 83 450 82.5C466.7 82 483.3 81 500 81.5C516.7 82 533.3 84 550 85.2C566.7 86.3 583.3 86.7 600 86.7C616.7 86.7 633.3 86.3 650 85.5C666.7 84.7 683.3 83.3 700 82.7C716.7 82 733.3 82 750 82.7C766.7 83.3 783.3 84.7 800 85.5C816.7 86.3 833.3 86.7 850 86.5C866.7 86.3 883.3 85.7 891.7 85.3L900 85L900 76L891.7 76.8C883.3 77.7 866.7 79.3 850 79.8C833.3 80.3 816.7 79.7 800 79C783.3 78.3 766.7 77.7 750 77C733.3 76.3 716.7 75.7 700 76C683.3 76.3 666.7 77.7 650 78.7C633.3 79.7 616.7 80.3 600 80.3C583.3 80.3 566.7 79.7 550 78.8C533.3 78 516.7 77 500 76.5C483.3 76 466.7 76 450 76.2C433.3 76.3 416.7 76.7 400 76.7C383.3 76.7 366.7 76.3 350 76.2C333.3 76 316.7 76 300 76.3C283.3 76.7 266.7 77.3 250 77.7C233.3 78 216.7 78 200 77.8C183.3 77.7 166.7 77.3 150 76.5C133.3 75.7 116.7 74.3 100 74.7C83.3 75 66.7 77 50 77.2C33.3 77.3 16.7 75.7 8.3 74.8L0 74Z" fill="#2e4a78"></path><path d="M0 91L8.3 91C16.7 91 33.3 91 50 91C66.7 91 83.3 91 100 91C116.7 91 133.3 91 150 91C166.7 91 183.3 91 200 91C216.7 91 233.3 91 250 91C266.7 91 283.3 91 300 91C316.7 91 333.3 91 350 91C366.7 91 383.3 91 400 91C416.7 91 433.3 91 450 91C466.7 91 483.3 91 500 91C516.7 91 533.3 91 550 91C566.7 91 583.3 91 600 91C616.7 91 633.3 91 650 91C666.7 91 683.3 91 700 91C716.7 91 733.3 91 750 91C766.7 91 783.3 91 800 91C816.7 91 833.3 91 850 91C866.7 91 883.3 91 891.7 91L900 91L900 83L891.7 83.3C883.3 83.7 866.7 84.3 850 84.5C833.3 84.7 816.7 84.3 800 83.5C783.3 82.7 766.7 81.3 750 80.7C733.3 80 716.7 80 700 80.7C683.3 81.3 666.7 82.7 650 83.5C633.3 84.3 616.7 84.7 600 84.7C583.3 84.7 566.7 84.3 550 83.2C533.3 82 516.7 80 500 79.5C483.3 79 466.7 80 450 80.5C433.3 81 416.7 81 400 81.2C383.3 81.3 366.7 81.7 350 81.3C333.3 81 316.7 80 300 79.8C283.3 79.7 266.7 80.3 250 81.3C233.3 82.3 216.7 83.7 200 84.2C183.3 84.7 166.7 84.3 150 83C133.3 81.7 116.7 79.3 100 79.5C83.3 79.7 66.7 82.3 50 82.7C33.3 83 16.7 81 8.3 80L0 79Z" fill="#304e80"></path></svg>