<svg id="visual" viewBox="0 0 900 90" width="900" height="90" xmlns="http://www.w3.org/2000/svg" xmlns:xlink="http://www.w3.org/1999/xlink" version="1.1"><rect x="0" y="0" width="900" height="90" fill="#1e293b"></rect><path d="M0 50L5.8 49.7C11.7 49.3 23.3 48.7 34.8 42.7C46.3 36.7 57.7 25.3 69.2 22.2C80.7 19 92.3 24 103.8 23.8C115.3 23.7 126.7 18.3 138.2 19C149.7 19.7 161.3 26.3 173 26.3C184.7 26.3 196.3 19.7 207.8 16.8C219.3 14 230.7 15 242.2 21.3C253.7 27.7 265.3 39.3 277 38.5C288.7 37.7 300.3 24.3 311.8 24.3C323.3 24.3 334.7 37.7 346.2 39C357.7 40.3 369.3 29.7 380.8 23.8C392.3 18 403.7 17 415.2 19.3C426.7 21.7 438.3 27.3 450 32C461.7 36.7 473.3 40.3 484.8 42.5C496.3 44.7 507.7 45.3 519.2 46.3C530.7 47.3 542.3 48.7 553.8 44.7C565.3 40.7 576.7 31.3 588.2 24.7C599.7 18 611.3 14 623 12.3C634.7 10.7 646.3 11.3 657.8 15.5C669.3 19.7 680.7 27.3 692.2 26.8C703.7 26.3 715.3 17.7 727 13.8C738.7 10 750.3 11 761.8 16.2C773.3 21.3 784.7 30.7 796.2 31.7C807.7 32.7 819.3 25.3 830.8 21.5C842.3 17.7 853.7 17.3 865.2 16.5C876.7 15.7 888.3 14.3 894.2 13.7L900 13L900 0L894.2 0C888.3 0 876.7 0 865.2 0C853.7 0 842.3 0 830.8 0C819.3 0 807.7 0 796.2 0C784.7 0 773.3 0 761.8 0C750.3 0 738.7 0 727 0C715.3 0 703.7 0 692.2 0C680.7 0 669.3 0 657.8 0C646.3 0 634.7 0 623 0C611.3 0 599.7 0 588.2 0C576.7 0 565.3 0 553.8 0C542.3 0 530.7 0 519.2 0C507.7 0 496.3 0 484.8 0C473.3 0 461.7 0 450 0C438.3 0 426.7 0 415.2 0C403.7 0 392.3 0 380.8 0C369.3 0 357.7 0 346.2 0C334.7 0 323.3 0 311.8 0C300.3 0 288.7 0 277 0C265.3 0 253.7 0 242.2 0C230.7 0 219.3 0 207.8 0C196.3 0 184.7 0 173 0C161.3 0 149.7 0 138.2 0C126.7 0 115.3 0 103.8 0C92.3 0 80.7 0 69.2 0C57.7 0 46.3 0 34.8 0C23.3 0 11.7 0 5.8 0L0 0Z" fill="#715DF2" stroke-linecap="round" stroke-linejoin="miter"></path></svg>