<svg id="visual" viewBox="0 0 900 90" width="900" height="90" xmlns="http://www.w3.org/2000/svg" xmlns:xlink="http://www.w3.org/1999/xlink" version="1.1"><rect x="0" y="0" width="900" height="90" fill="#475569"></rect><path d="M0 42L29 42L29 31L58 31L58 39L87 39L87 31L116 31L116 37L145 37L145 34L174 34L174 37L203 37L203 46L232 46L232 51L261 51L261 45L290 45L290 36L319 36L319 54L348 54L348 38L377 38L377 52L406 52L406 54L435 54L435 33L465 33L465 55L494 55L494 39L523 39L523 43L552 43L552 36L581 36L581 38L610 38L610 39L639 39L639 57L668 57L668 45L697 45L697 45L726 45L726 37L755 37L755 56L784 56L784 32L813 32L813 57L842 57L842 53L871 53L871 37L900 37L900 31L900 91L900 91L871 91L871 91L842 91L842 91L813 91L813 91L784 91L784 91L755 91L755 91L726 91L726 91L697 91L697 91L668 91L668 91L639 91L639 91L610 91L610 91L581 91L581 91L552 91L552 91L523 91L523 91L494 91L494 91L465 91L465 91L435 91L435 91L406 91L406 91L377 91L377 91L348 91L348 91L319 91L319 91L290 91L290 91L261 91L261 91L232 91L232 91L203 91L203 91L174 91L174 91L145 91L145 91L116 91L116 91L87 91L87 91L58 91L58 91L29 91L29 91L0 91Z" fill="#715DF2" stroke-linecap="square" stroke-linejoin="miter"></path></svg>